<?xml version="1.0" encoding="utf-8"?>
<!-- Generator: Adobe Illustrator 25.2.1, SVG Export Plug-In . SVG Version: 6.00 Build 0)  -->
<svg version="1.1" id="Layer_1" xmlns="http://www.w3.org/2000/svg" xmlns:xlink="http://www.w3.org/1999/xlink" x="0px" y="0px"
	 viewBox="0 0 321.6 600" style="enable-background:new 0 0 321.6 600;" xml:space="preserve">
<polygon points="187.2,401.5 169.9,416 157.3,426.6 157.3,433.2 157.3,530 134.3,510.6 134.3,445.9 123.6,454.9 109.3,466.9 
	104.4,471 104.4,494.3 104.4,503.3 104.4,527 134.3,551.9 157.9,531.2 182.1,551.6 203.7,530.9 187.2,516.9 "/>
<polygon points="234.5,361.8 204.6,387 204.6,501.1 225.3,516.4 231.5,521.5 255.5,500.5 234.5,482.9 "/>
<polygon points="93.9,312.4 67.1,335 67.1,395.9 97,420.7 120.6,400 134,411.3 142.5,418.4 142.5,418.4 165.5,399 163.7,397.5 
	149.9,385.7 149.9,302.9 149.9,269.4 149.9,265.3 125.3,286 120,290.4 120,294.5 120,302.9 120,398.8 97,379.4 97,309.8 "/>
<path d="M232.8,152.8h26.6l19.7-16.6l10.2-8.5v0V35.8L259.4,11l-3-2.4l-52.3,44v146.8l28.7-24.2V152.8z M232.8,43.6l8.1-7.2
	l18.5,15.9v64.3l-8.4,7.2h-18.2V43.6z"/>
<polygon points="280.6,413.3 280.6,385.1 304.6,361.2 280.6,361.2 280.6,334.2 280.6,322.9 250.7,348.1 250.7,361.2 250.7,390.8 
	250.7,459.3 280.6,484.1 304.6,463.1 280.6,442.8 "/>
<g>
	<polygon points="137.4,126 137.4,214.8 161.6,234.8 137.3,255.4 107.5,230.6 107.5,151.1 	"/>
	<polygon points="161.6,234.8 161.6,146 137.4,126 161.7,105.4 191.5,130.2 191.5,209.7 	"/>
</g>
<path d="M66.4,314.5h0.3l29.6-24.8l0-0.3l0,0v-91.8l-29.9-24.8l-3-2.4l-52.3,44v146.9L39.8,337v-22.5L66.4,314.5L66.4,314.5z
	 M39.8,285.5v-80.1l8.1-7.2L66.4,214v64.3l-8.4,7.2H39.8z"/>
<path d="M225.1,202.2l-52.3,44v146.7l28.7-24.2v-22.4h26.6l29.9-25.1v-91.8l-29.9-24.8L225.1,202.2z M228.1,310.1l-8.4,7.2h-18.2
	v-80.1l8.1-7.2l18.5,15.9V310.1z"/>
<polygon points="116.7,554.7 99.5,569.4 76,549.7 76,547.7 76,492.1 76,488.8 76,479.5 76,474.2 102,452.4 104.4,450.4 79.7,429.8 
	46.1,457.7 46.1,468.4 46.1,512.5 46.1,516.7 46.1,547.7 46.1,566.1 82.8,596.6 106.8,575.7 123.8,561.3 "/>
</svg>
